<?xml version="1.0" encoding="UTF-8" standalone="no"?>
<svg
   xmlns:dc="http://purl.org/dc/elements/1.1/"
   xmlns:cc="http://creativecommons.org/ns#"
   xmlns:rdf="http://www.w3.org/1999/02/22-rdf-syntax-ns#"
   xmlns:svg="http://www.w3.org/2000/svg"
   xmlns="http://www.w3.org/2000/svg"
   xmlns:sodipodi="http://sodipodi.sourceforge.net/DTD/sodipodi-0.dtd"
   xmlns:inkscape="http://www.inkscape.org/namespaces/inkscape"
   style="enable-background:new 0 0 64 64;"
   version="1.1"
   viewBox="0 0 64 64"
   xml:space="preserve"
   id="svg9"
   sodipodi:docname="f_blue.svg"
   inkscape:version="0.92.3 (2405546, 2018-03-11)"><metadata
     id="metadata15"><rdf:RDF><cc:Work
         rdf:about=""><dc:format>image/svg+xml</dc:format><dc:type
           rdf:resource="http://purl.org/dc/dcmitype/StillImage" /><dc:title /></cc:Work></rdf:RDF></metadata><defs
     id="defs13" /><sodipodi:namedview
     pagecolor="#ffffff"
     bordercolor="#666666"
     borderopacity="1"
     objecttolerance="10"
     gridtolerance="10"
     guidetolerance="10"
     inkscape:pageopacity="0"
     inkscape:pageshadow="2"
     inkscape:window-width="640"
     inkscape:window-height="480"
     id="namedview11"
     showgrid="false"
     inkscape:zoom="3.6875"
     inkscape:cx="17.762711"
     inkscape:cy="32"
     inkscape:window-x="0"
     inkscape:window-y="27"
     inkscape:window-maximized="0"
     inkscape:current-layer="svg9" /><style
     type="text/css"
     id="style2">
	.st0{fill:#0072FF;}
</style><g
     id="GUIDES_64" /><g
     id="Layer_3" /><g
     id="Layer_2"
     style="fill:#ffffff"><path
       class="st0"
       d="M20.1,36h3.4c0.3,0,0.6,0.3,0.6,0.6V58c0,1.1,0.9,2,2,2h7.8c1.1,0,2-0.9,2-2V36.6c0-0.3,0.3-0.6,0.6-0.6h5.6   c1,0,1.9-0.7,2-1.7l1.3-7.8c0.2-1.2-0.8-2.4-2-2.4h-6.6c-0.5,0-0.9-0.4-0.9-0.9v-5c0-1.3,0.7-2,2-2h5.9c1.1,0,2-0.9,2-2V6.2   c0-1.1-0.9-2-2-2h-7.1c-13,0-12.7,10.5-12.7,12v7.3c0,0.3-0.3,0.6-0.6,0.6h-3.4c-1.1,0-2,0.9-2,2v7.8C18.1,35.1,19,36,20.1,36z"
       id="path6"
       style="fill:#ffffff" /></g></svg>