<?xml version="1.0" encoding="UTF-8" standalone="no"?>
<svg
   xmlns:dc="http://purl.org/dc/elements/1.1/"
   xmlns:cc="http://creativecommons.org/ns#"
   xmlns:rdf="http://www.w3.org/1999/02/22-rdf-syntax-ns#"
   xmlns:svg="http://www.w3.org/2000/svg"
   xmlns="http://www.w3.org/2000/svg"
   xmlns:sodipodi="http://sodipodi.sourceforge.net/DTD/sodipodi-0.dtd"
   xmlns:inkscape="http://www.inkscape.org/namespaces/inkscape"
   viewBox="0 0 16 16"
   version="1.1"
   id="svg74"
   sodipodi:docname="favico.svg"
   width="16"
   height="16"
   inkscape:version="0.92.3 (2405546, 2018-03-11)">
  <metadata
     id="metadata78">
    <rdf:RDF>
      <cc:Work
         rdf:about="">
        <dc:format>image/svg+xml</dc:format>
        <dc:type
           rdf:resource="http://purl.org/dc/dcmitype/StillImage" />
        <dc:title>logo</dc:title>
      </cc:Work>
    </rdf:RDF>
  </metadata>
  <sodipodi:namedview
     pagecolor="#ffffff"
     bordercolor="#666666"
     borderopacity="1"
     objecttolerance="10"
     gridtolerance="10"
     guidetolerance="10"
     inkscape:pageopacity="0"
     inkscape:pageshadow="2"
     inkscape:window-width="1280"
     inkscape:window-height="969"
     id="namedview76"
     showgrid="false"
     inkscape:snap-page="false"
     inkscape:zoom="5.2926665"
     inkscape:cx="96.702703"
     inkscape:cy="29.964656"
     inkscape:window-x="0"
     inkscape:window-y="27"
     inkscape:window-maximized="1"
     inkscape:current-layer="svg74" />
  <defs
     id="defs4">
    <style
       id="style2">.cls-1{isolation:isolate;}.cls-2{opacity:0.16;mix-blend-mode:multiply;}.cls-3{fill:#070308;}.cls-4{fill:#fff;}</style>
  </defs>
  <title
     id="title6">logo</title>
  <g
     class="cls-1"
     id="g72"
     transform="matrix(0.04691545,0,0,0.05051129,0.56682203,3.5898667)"
     style="isolation:isolate">
    <g
       id="Layer_2"
       data-name="Layer 2">
      <g
         id="Layer_1-2"
         data-name="Layer 1">
        <g
           class="cls-2"
           id="g38"
           style="opacity:0.16000001;mix-blend-mode:multiply">
          <polygon
             class="cls-3"
             points="141.94,109.07 141.94,90 123.87,97.93 130.06,104.12 "
             id="polygon8"
             style="fill:#070308" />
          <polygon
             class="cls-3"
             points="145.67,79.56 145.67,109.56 155.02,113.8 "
             id="polygon10"
             style="fill:#070308" />
          <polygon
             class="cls-3"
             points="18.66,127.97 46.02,142.49 76.71,142.49 85.75,131.78 74.09,131.78 29.6,112.27 40.78,102.75 39.12,47.55 44.83,42.55 69.81,42.55 77.66,38.98 77.19,28.75 60.77,16.38 31.98,34.23 2,112.98 9.61,121.07 34.84,127.73 "
             id="polygon12"
             style="fill:#070308" />
          <path
             class="cls-3"
             d="M 140.29,40.19 V 19.27 a 1.49,1.49 0 0 1 0.52,-1.13 l 6.43,-5.52 a 1.51,1.51 0 0 1 1.91,0 l 8.62,6.93 h 11.4 l 8.62,-6.93 a 1.51,1.51 0 0 1 1.91,0 l 6.43,5.52 a 1.49,1.49 0 0 1 0.52,1.13 v 20.92 l 2.94,-3.76 V 12.94 L 177.3,2 h -27.67 l -12.29,10.94 v 23.49 z"
             id="path14"
             inkscape:connector-curvature="0"
             style="fill:#070308" />
          <polygon
             class="cls-3"
             points="98.74,127.89 70.23,99.55 52.18,99.55 35.64,111.08 74.08,127.89 "
             id="polygon16"
             style="fill:#070308" />
          <polygon
             class="cls-3"
             points="184.99,109.07 196.88,104.12 203.07,97.93 184.99,90 "
             id="polygon18"
             style="fill:#070308" />
          <path
             class="cls-3"
             d="m 154.07,84.58 h 18.8 l 19,-24.55 2,-21.5 -1.83,-0.41 -5.73,7.32 a 1.49,1.49 0 0 1 -2.67,-0.92 V 20 l -5,-4.26 -8.06,6.48 a 1.54,1.54 0 0 1 -0.94,0.33 h -12.4 a 1.49,1.49 0 0 1 -0.93,-0.33 l -8.07,-6.48 -5,4.26 v 24.52 a 1.5,1.5 0 0 1 -1,1.41 1.4,1.4 0 0 1 -0.49,0.08 1.5,1.5 0 0 1 -1.18,-0.57 l -5.73,-7.32 -1.83,0.41 2,21.5 z"
             id="path20"
             inkscape:connector-curvature="0"
             style="fill:#070308" />
          <polygon
             class="cls-3"
             points="103.43,125.81 124.44,173.5 145.47,173.5 161.91,164.94 161.91,121.61 127.24,106.59 113.15,90.58 91.37,90.58 75.04,97.95 "
             id="polygon22"
             style="fill:#070308" />
          <polygon
             class="cls-3"
             points="256.7,99.55 228.2,127.89 252.86,127.89 291.29,111.08 274.75,99.55 "
             id="polygon24"
             style="fill:#070308" />
          <polygon
             class="cls-3"
             points="230.87,157.45 236.4,132.01 225.93,132.01 205.13,178.36 211.06,178.36 "
             id="polygon26"
             style="fill:#070308" />
          <polygon
             class="cls-3"
             points="250.22,142.49 280.92,142.49 308.28,127.97 292.1,127.73 317.32,121.07 324.93,112.98 294.95,34.23 266.16,16.38 249.75,28.75 249.27,38.98 257.12,42.55 282.11,42.55 287.82,47.55 286.15,102.75 297.33,112.27 252.84,131.78 241.18,131.78 "
             id="polygon28"
             style="fill:#070308" />
          <polygon
             class="cls-3"
             points="181.26,109.56 181.26,79.56 171.91,113.8 "
             id="polygon30"
             style="fill:#070308" />
          <polygon
             class="cls-3"
             points="151.04,86.23 160.04,116.19 163.45,118.22 163.47,118.22 163.48,118.22 166.9,116.19 175.9,86.23 163.47,99.53 "
             id="polygon32"
             style="fill:#070308" />
          <polygon
             class="cls-3"
             points="199.69,106.59 165.02,121.61 165.02,164.94 181.47,173.5 202.5,173.5 223.5,125.81 251.9,97.95 235.56,90.58 213.78,90.58 "
             id="polygon34"
             style="fill:#070308" />
          <polygon
             class="cls-3"
             points="115.87,178.36 121.8,178.36 101,132.01 90.53,132.01 96.06,157.45 "
             id="polygon36"
             style="fill:#070308" />
        </g>
        <polygon
           class="cls-4"
           points="139.94,107.07 139.94,88 121.87,95.93 128.06,102.12 "
           id="polygon40"
           style="fill:#ffffff" />
        <polygon
           class="cls-4"
           points="143.67,77.56 143.67,107.56 153.02,111.8 "
           id="polygon42"
           style="fill:#ffffff" />
        <polygon
           class="cls-4"
           points="16.66,125.97 44.02,140.49 74.71,140.49 83.75,129.78 72.09,129.78 27.6,110.27 38.78,100.75 37.12,45.55 42.83,40.55 67.81,40.55 75.66,36.98 75.19,26.75 58.77,14.38 29.98,32.23 0,110.98 7.61,119.07 32.84,125.73 "
           id="polygon44"
           style="fill:#ffffff" />
        <path
           class="cls-4"
           d="M 138.29,38.19 V 17.27 a 1.49,1.49 0 0 1 0.52,-1.13 l 6.43,-5.52 a 1.51,1.51 0 0 1 1.91,0 l 8.62,6.93 h 11.4 l 8.62,-6.93 a 1.51,1.51 0 0 1 1.91,0 l 6.43,5.52 a 1.49,1.49 0 0 1 0.52,1.13 v 20.92 l 2.94,-3.76 V 10.94 L 175.3,0 h -27.67 l -12.29,10.94 v 23.49 z"
           id="path46"
           inkscape:connector-curvature="0"
           style="fill:#ffffff" />
        <polygon
           class="cls-4"
           points="96.74,125.89 68.23,97.55 50.18,97.55 33.64,109.08 72.08,125.89 "
           id="polygon48"
           style="fill:#ffffff" />
        <polygon
           class="cls-4"
           points="182.99,107.07 194.88,102.12 201.07,95.93 182.99,88 "
           id="polygon50"
           style="fill:#ffffff" />
        <path
           class="cls-4"
           d="m 152.07,82.58 h 18.8 l 19,-24.55 2,-21.5 -1.83,-0.41 -5.73,7.32 a 1.49,1.49 0 0 1 -2.67,-0.92 V 18 l -5,-4.26 -8.06,6.48 a 1.54,1.54 0 0 1 -0.94,0.33 h -12.4 a 1.49,1.49 0 0 1 -0.93,-0.33 l -8.07,-6.48 -5,4.26 v 24.52 a 1.5,1.5 0 0 1 -1,1.41 1.4,1.4 0 0 1 -0.49,0.08 1.5,1.5 0 0 1 -1.18,-0.57 l -5.73,-7.32 -1.83,0.41 2,21.5 z"
           id="path52"
           inkscape:connector-curvature="0"
           style="fill:#ffffff" />
        <polygon
           class="cls-4"
           points="101.43,123.81 122.44,171.5 143.47,171.5 159.91,162.94 159.91,119.61 125.24,104.59 111.15,88.58 89.37,88.58 73.04,95.95 "
           id="polygon54"
           style="fill:#ffffff" />
        <polygon
           class="cls-4"
           points="254.7,97.55 226.2,125.89 250.86,125.89 289.29,109.08 272.75,97.55 "
           id="polygon56"
           style="fill:#ffffff" />
        <polygon
           class="cls-4"
           points="228.87,155.45 234.4,130.01 223.93,130.01 203.13,176.36 209.06,176.36 "
           id="polygon58"
           style="fill:#ffffff" />
        <polygon
           class="cls-4"
           points="248.22,140.49 278.92,140.49 306.28,125.97 290.1,125.73 315.32,119.07 322.93,110.98 292.95,32.23 264.16,14.38 247.75,26.75 247.27,36.98 255.12,40.55 280.11,40.55 285.82,45.55 284.15,100.75 295.33,110.27 250.84,129.78 239.18,129.78 "
           id="polygon60"
           style="fill:#ffffff" />
        <polygon
           class="cls-4"
           points="179.26,107.56 179.26,77.56 169.91,111.8 "
           id="polygon62"
           style="fill:#ffffff" />
        <polygon
           class="cls-4"
           points="149.04,84.23 158.04,114.19 161.45,116.22 161.47,116.22 161.48,116.22 164.9,114.19 173.9,84.23 161.47,97.53 "
           id="polygon64"
           style="fill:#ffffff" />
        <polygon
           class="cls-4"
           points="197.69,104.59 163.02,119.61 163.02,162.94 179.47,171.5 200.5,171.5 221.5,123.81 249.9,95.95 233.56,88.58 211.78,88.58 "
           id="polygon66"
           style="fill:#ffffff" />
        <polygon
           class="cls-4"
           points="113.87,176.36 119.8,176.36 99,130.01 88.53,130.01 94.06,155.45 "
           id="polygon68"
           style="fill:#ffffff" />
      </g>
    </g>
  </g>
</svg>
