<?xml version="1.0" encoding="UTF-8" standalone="no"?>
<svg
   xmlns:dc="http://purl.org/dc/elements/1.1/"
   xmlns:cc="http://creativecommons.org/ns#"
   xmlns:rdf="http://www.w3.org/1999/02/22-rdf-syntax-ns#"
   xmlns:svg="http://www.w3.org/2000/svg"
   xmlns="http://www.w3.org/2000/svg"
   xmlns:sodipodi="http://sodipodi.sourceforge.net/DTD/sodipodi-0.dtd"
   xmlns:inkscape="http://www.inkscape.org/namespaces/inkscape"
   style="enable-background:new 0 0 64 64;"
   version="1.1"
   viewBox="0 0 64 64"
   xml:space="preserve"
   id="svg9"
   sodipodi:docname="g_white.svg"
   inkscape:version="0.92.3 (2405546, 2018-03-11)"><metadata
     id="metadata15"><rdf:RDF><cc:Work
         rdf:about=""><dc:format>image/svg+xml</dc:format><dc:type
           rdf:resource="http://purl.org/dc/dcmitype/StillImage" /><dc:title /></cc:Work></rdf:RDF></metadata><defs
     id="defs13" /><sodipodi:namedview
     pagecolor="#ffffff"
     bordercolor="#666666"
     borderopacity="1"
     objecttolerance="10"
     gridtolerance="10"
     guidetolerance="10"
     inkscape:pageopacity="0"
     inkscape:pageshadow="2"
     inkscape:window-width="640"
     inkscape:window-height="480"
     id="namedview11"
     showgrid="false"
     inkscape:zoom="3.6875"
     inkscape:cx="22.508474"
     inkscape:cy="32"
     inkscape:window-x="0"
     inkscape:window-y="27"
     inkscape:window-maximized="0"
     inkscape:current-layer="svg9" /><style
     type="text/css"
     id="style2">
	.st0{fill:#0072FF;}
</style><g
     id="GUIDES_64" /><g
     id="Layer_3" /><g
     id="Layer_2"
     style="fill:#ff0000"><path
       class="st0"
       d="M33.4,56C46.2,55.2,56,44.2,56,31.4c0-2.6-2.1-4.7-4.7-4.7H34.1c-1.2,0-2.1,1-2.1,2.1v6.4c0,1.2,1,2.1,2.1,2.1   h8.1c0.9,0,1.5,1,1,1.7c-2.7,4.3-7.7,6.9-13.3,6.2c-6-0.8-10.8-5.7-11.4-11.7c-0.9-8,5.4-14.9,13.3-14.9c2.3,0,4.5,0.6,6.5,1.7   c1,0.5,2.2,0.4,3-0.4l4.3-4.2c1.1-1.1,0.9-2.9-0.4-3.8C41.1,9.3,36.2,7.8,31,8C18.3,8.5,8.1,19.1,8,31.8   C7.9,45.7,19.3,56.8,33.4,56z"
       id="path6"
       style="fill:#ff0000" /></g></svg>