<svg xmlns="http://www.w3.org/2000/svg" viewBox="0 0 324.93 178.36"><defs><style>.cls-1{isolation:isolate;}.cls-2{opacity:0.16;mix-blend-mode:multiply;}.cls-3{fill:#070308;}.cls-4{fill:#fff;}</style></defs><title>logo</title><g class="cls-1"><g id="Layer_2" data-name="Layer 2"><g id="Layer_1-2" data-name="Layer 1"><g class="cls-2"><polygon class="cls-3" points="141.94 109.07 141.94 90 123.87 97.93 130.06 104.12 141.94 109.07"/><polygon class="cls-3" points="145.67 79.56 145.67 109.56 155.02 113.8 145.67 79.56"/><polygon class="cls-3" points="29.6 112.27 40.78 102.75 39.12 47.55 44.83 42.55 69.81 42.55 77.66 38.98 77.19 28.75 60.77 16.38 31.98 34.23 2 112.98 9.61 121.07 34.84 127.73 18.66 127.97 46.02 142.49 76.71 142.49 85.75 131.78 74.09 131.78 29.6 112.27"/><path class="cls-3" d="M140.29,40.19V19.27a1.49,1.49,0,0,1,.52-1.13l6.43-5.52a1.51,1.51,0,0,1,1.91,0l8.62,6.93h11.4l8.62-6.93a1.51,1.51,0,0,1,1.91,0l6.43,5.52a1.49,1.49,0,0,1,.52,1.13V40.19l2.94-3.76V12.94L177.3,2H149.63L137.34,12.94V36.43Z"/><polygon class="cls-3" points="35.64 111.08 74.08 127.89 98.74 127.89 70.23 99.55 52.18 99.55 35.64 111.08"/><polygon class="cls-3" points="184.99 109.07 196.88 104.12 203.07 97.93 184.99 90 184.99 109.07"/><path class="cls-3" d="M154.07,84.58h18.8l19-24.55,2-21.5-1.83-.41-5.73,7.32a1.49,1.49,0,0,1-2.67-.92V20l-5-4.26-8.06,6.48a1.54,1.54,0,0,1-.94.33H157.24a1.49,1.49,0,0,1-.93-.33l-8.07-6.48-5,4.26V44.52a1.5,1.5,0,0,1-1,1.41,1.4,1.4,0,0,1-.49.08,1.5,1.5,0,0,1-1.18-.57l-5.73-7.32-1.83.41,2,21.5Z"/><polygon class="cls-3" points="113.15 90.58 91.37 90.58 75.04 97.95 103.43 125.81 124.44 173.5 145.47 173.5 161.91 164.94 161.91 121.61 127.24 106.59 113.15 90.58"/><polygon class="cls-3" points="291.29 111.08 274.75 99.55 256.7 99.55 228.2 127.89 252.86 127.89 291.29 111.08"/><polygon class="cls-3" points="205.13 178.36 211.06 178.36 230.87 157.45 236.4 132.01 225.93 132.01 205.13 178.36"/><polygon class="cls-3" points="324.93 112.98 294.95 34.23 266.16 16.38 249.75 28.75 249.27 38.98 257.12 42.55 282.11 42.55 287.82 47.55 286.15 102.75 297.33 112.27 252.84 131.78 241.18 131.78 250.22 142.49 280.92 142.49 308.28 127.97 292.1 127.73 317.32 121.07 324.93 112.98"/><polygon class="cls-3" points="181.26 109.56 181.26 79.56 171.91 113.8 181.26 109.56"/><polygon class="cls-3" points="175.9 86.23 163.47 99.53 163.47 99.53 163.47 99.53 151.04 86.23 160.04 116.19 163.45 118.22 163.47 118.22 163.48 118.22 166.9 116.19 175.9 86.23"/><polygon class="cls-3" points="251.9 97.95 235.56 90.58 213.78 90.58 199.69 106.59 165.02 121.61 165.02 164.94 181.47 173.5 202.5 173.5 223.5 125.81 251.9 97.95"/><polygon class="cls-3" points="90.53 132.01 96.06 157.45 115.87 178.36 121.8 178.36 101 132.01 90.53 132.01"/></g><polygon class="cls-4" points="139.94 107.07 139.94 88 121.87 95.93 128.06 102.12 139.94 107.07"/><polygon class="cls-4" points="143.67 77.56 143.67 107.56 153.02 111.8 143.67 77.56"/><polygon class="cls-4" points="27.6 110.27 38.78 100.75 37.12 45.55 42.83 40.55 67.81 40.55 75.66 36.98 75.19 26.75 58.77 14.38 29.98 32.23 0 110.98 7.61 119.07 32.84 125.73 16.66 125.97 44.02 140.49 74.71 140.49 83.75 129.78 72.09 129.78 27.6 110.27"/><path class="cls-4" d="M138.29,38.19V17.27a1.49,1.49,0,0,1,.52-1.13l6.43-5.52a1.51,1.51,0,0,1,1.91,0l8.62,6.93h11.4l8.62-6.93a1.51,1.51,0,0,1,1.91,0l6.43,5.52a1.49,1.49,0,0,1,.52,1.13V38.19l2.94-3.76V10.94L175.3,0H147.63L135.34,10.94V34.43Z"/><polygon class="cls-4" points="33.64 109.08 72.08 125.89 96.74 125.89 68.23 97.55 50.18 97.55 33.64 109.08"/><polygon class="cls-4" points="182.99 107.07 194.88 102.12 201.07 95.93 182.99 88 182.99 107.07"/><path class="cls-4" d="M152.07,82.58h18.8l19-24.55,2-21.5-1.83-.41-5.73,7.32a1.49,1.49,0,0,1-2.67-.92V18l-5-4.26-8.06,6.48a1.54,1.54,0,0,1-.94.33H155.24a1.49,1.49,0,0,1-.93-.33l-8.07-6.48-5,4.26V42.52a1.5,1.5,0,0,1-1,1.41,1.4,1.4,0,0,1-.49.08,1.5,1.5,0,0,1-1.18-.57l-5.73-7.32-1.83.41,2,21.5Z"/><polygon class="cls-4" points="111.15 88.58 89.37 88.58 73.04 95.95 101.43 123.81 122.44 171.5 143.47 171.5 159.91 162.94 159.91 119.61 125.24 104.59 111.15 88.58"/><polygon class="cls-4" points="289.29 109.08 272.75 97.55 254.7 97.55 226.2 125.89 250.86 125.89 289.29 109.08"/><polygon class="cls-4" points="203.13 176.36 209.06 176.36 228.87 155.45 234.4 130.01 223.93 130.01 203.13 176.36"/><polygon class="cls-4" points="322.93 110.98 292.95 32.23 264.16 14.38 247.75 26.75 247.27 36.98 255.12 40.55 280.11 40.55 285.82 45.55 284.15 100.75 295.33 110.27 250.84 129.78 239.18 129.78 248.22 140.49 278.92 140.49 306.28 125.97 290.1 125.73 315.32 119.07 322.93 110.98"/><polygon class="cls-4" points="179.26 107.56 179.26 77.56 169.91 111.8 179.26 107.56"/><polygon class="cls-4" points="173.9 84.23 161.47 97.53 161.47 97.53 161.47 97.53 149.04 84.23 158.04 114.19 161.45 116.22 161.47 116.22 161.48 116.22 164.9 114.19 173.9 84.23"/><polygon class="cls-4" points="249.9 95.95 233.56 88.58 211.78 88.58 197.69 104.59 163.02 119.61 163.02 162.94 179.47 171.5 200.5 171.5 221.5 123.81 249.9 95.95"/><polygon class="cls-4" points="88.53 130.01 94.06 155.45 113.87 176.36 119.8 176.36 99 130.01 88.53 130.01"/></g></g></g></svg>