<?xml version="1.0" encoding="UTF-8" standalone="no"?>
<svg
   xmlns:dc="http://purl.org/dc/elements/1.1/"
   xmlns:cc="http://creativecommons.org/ns#"
   xmlns:rdf="http://www.w3.org/1999/02/22-rdf-syntax-ns#"
   xmlns:svg="http://www.w3.org/2000/svg"
   xmlns="http://www.w3.org/2000/svg"
   xmlns:sodipodi="http://sodipodi.sourceforge.net/DTD/sodipodi-0.dtd"
   xmlns:inkscape="http://www.inkscape.org/namespaces/inkscape"
   style="enable-background:new 0 0 64 64;"
   version="1.1"
   viewBox="0 0 64 64"
   xml:space="preserve"
   id="svg9"
   sodipodi:docname="s_yellow.svg"
   inkscape:version="0.92.3 (2405546, 2018-03-11)"><metadata
     id="metadata15"><rdf:RDF><cc:Work
         rdf:about=""><dc:format>image/svg+xml</dc:format><dc:type
           rdf:resource="http://purl.org/dc/dcmitype/StillImage" /><dc:title></dc:title></cc:Work></rdf:RDF></metadata><defs
     id="defs13" /><sodipodi:namedview
     pagecolor="#ffffff"
     bordercolor="#666666"
     borderopacity="1"
     objecttolerance="10"
     gridtolerance="10"
     guidetolerance="10"
     inkscape:pageopacity="0"
     inkscape:pageshadow="2"
     inkscape:window-width="640"
     inkscape:window-height="480"
     id="namedview11"
     showgrid="false"
     inkscape:zoom="3.6875"
     inkscape:cx="27.254237"
     inkscape:cy="32"
     inkscape:window-x="0"
     inkscape:window-y="27"
     inkscape:window-maximized="0"
     inkscape:current-layer="svg9" /><style
     type="text/css"
     id="style2">
	.st0{fill:#0072FF;}
</style><g
     id="GUIDES_64" /><g
     id="Layer_3" /><g
     id="Layer_2"
     style="fill:#ffff00"><path
       class="st0"
       d="M16.2,37.7c-0.1,0.2-1,2.2-2.8,4.3c-1,1.2-2.2,2.2-3.4,3c-1.4,0.9-3,1.5-4.7,1.8c-0.9,0.2-1.4,1.1-1,1.9   c0,0,0,0,0,0c0.3,0.6,0.9,1.1,1.9,1.6c1.2,0.6,3,1,5.4,1.4C11.8,52,12,52.6,12,53c0.1,0.4,0.2,0.8,0.3,1.3c0.1,0.5,0.5,1.1,1.5,1.1   c0.4,0,0.8-0.1,1.3-0.2c0.7-0.1,1.7-0.3,2.9-0.3c0.7,0,1.4,0.1,2.1,0.2c1.4,0.2,2.5,1.1,3.9,2c2,1.4,4.2,3,7.7,3c0.1,0,0.2,0,0.3,0   c0.1,0,0.3,0,0.4,0c3.4,0,5.7-1.6,7.7-3l0,0c1.4-1,2.5-1.8,3.9-2c0.7-0.1,1.4-0.2,2.1-0.2c1.2,0,2.1,0.1,2.9,0.3   c0.5,0.1,1,0.2,1.3,0.2l0,0h0c0.7,0,1.2-0.4,1.4-1.1c0.1-0.4,0.2-0.9,0.3-1.3c0.1-0.4,0.2-1,0.3-1.2c2.4-0.4,4.2-0.8,5.4-1.4   c1-0.5,1.6-1,1.9-1.6c0.1-0.2,0.1-0.4,0.1-0.6c0-0.7-0.6-1.2-1.2-1.3c-7.3-1.3-10.6-8.8-10.8-9.1c0,0,0,0,0-0.1   c-0.4-0.8-0.5-1.4-0.3-1.9c0.4-1,2-1.4,3-1.8c0.3-0.1,0.6-0.2,0.8-0.3c1-0.4,1.7-0.8,2.2-1.3c0.6-0.6,0.7-1.1,0.7-1.5   c0-0.9-0.7-1.7-1.8-2.1c-0.4-0.2-0.8-0.2-1.2-0.2c-0.3,0-0.7,0-1.1,0.2c-0.9,0.4-1.6,0.6-2.3,0.7c-0.4,0-0.6-0.1-0.8-0.2   c0-0.3,0-0.7,0.1-1.1l0-0.2c0.2-3.8,0.5-8.4-0.7-11.2c-0.8-1.9-2-3.5-3.4-4.9c-1.2-1.1-2.5-2-4.1-2.7C36.2,8.2,33.8,8,32.5,8h0   c0,0-0.1,0-0.1,0c-0.3,0-0.9,0-1,0c-1.2,0-3.7,0.2-6.3,1.3c-1.5,0.7-2.9,1.6-4,2.7c-1.4,1.3-2.5,3-3.4,4.8   c-1.2,2.8-0.9,7.4-0.7,11.2l0,0c0,0.4,0.1,0.8,0.1,1.2c-0.2,0.1-0.5,0.2-0.9,0.2c-0.7,0-1.5-0.2-2.5-0.7c-0.3-0.1-0.6-0.2-0.9-0.2   c-0.6,0-1.1,0.2-1.7,0.5c-0.6,0.4-1.1,0.9-1.2,1.5c-0.1,0.4-0.1,1.2,0.8,1.9c0.5,0.4,1.2,0.8,2.1,1.2c0.2,0.1,0.5,0.2,0.8,0.3   c1,0.3,2.6,0.8,3,1.8C16.7,36.2,16.7,36.9,16.2,37.7C16.3,37.6,16.3,37.7,16.2,37.7z"
       id="path6"
       style="fill:#ffff00" /></g></svg>