<?xml version="1.0" encoding="UTF-8" standalone="no"?>
<svg
   xmlns:dc="http://purl.org/dc/elements/1.1/"
   xmlns:cc="http://creativecommons.org/ns#"
   xmlns:rdf="http://www.w3.org/1999/02/22-rdf-syntax-ns#"
   xmlns:svg="http://www.w3.org/2000/svg"
   xmlns="http://www.w3.org/2000/svg"
   xmlns:sodipodi="http://sodipodi.sourceforge.net/DTD/sodipodi-0.dtd"
   xmlns:inkscape="http://www.inkscape.org/namespaces/inkscape"
   style="enable-background:new 0 0 64 64;"
   version="1.1"
   viewBox="0 0 64 64"
   xml:space="preserve"
   id="svg9"
   sodipodi:docname="t_light-blue.svg"
   inkscape:version="0.92.3 (2405546, 2018-03-11)"><metadata
     id="metadata15"><rdf:RDF><cc:Work
         rdf:about=""><dc:format>image/svg+xml</dc:format><dc:type
           rdf:resource="http://purl.org/dc/dcmitype/StillImage" /><dc:title></dc:title></cc:Work></rdf:RDF></metadata><defs
     id="defs13" /><sodipodi:namedview
     pagecolor="#ffffff"
     bordercolor="#666666"
     borderopacity="1"
     objecttolerance="10"
     gridtolerance="10"
     guidetolerance="10"
     inkscape:pageopacity="0"
     inkscape:pageshadow="2"
     inkscape:window-width="640"
     inkscape:window-height="480"
     id="namedview11"
     showgrid="false"
     inkscape:zoom="3.6875"
     inkscape:cx="27.254237"
     inkscape:cy="32"
     inkscape:window-x="0"
     inkscape:window-y="27"
     inkscape:window-maximized="0"
     inkscape:current-layer="svg9" /><style
     type="text/css"
     id="style2">
	.st0{fill:#0072FF;}
</style><g
     id="GUIDES_64" /><g
     id="Layer_3" /><g
     id="Layer_2"
     style="fill:#2ad4ff"><path
       class="st0"
       d="M11.4,26.6C11.5,26.6,11.5,26.6,11.4,26.6c-0.9,0-1.8-0.2-2.6-0.4c-1.3-0.4-2.5,0.8-2.1,2   c1.1,4.3,4.5,7.7,8.8,8.6c-1,0.3-2,0.4-3,0.4c-1,0-1.7,1.1-1.2,2c1.9,3.5,5.6,5.9,9.7,6h1c1.1,0,2,0.9,2,2c0,1.1-0.9,2-2,2   c-1.3,0-2.9-0.1-4.5-0.5c-1-0.2-2-0.2-2.9,0.1c-1.7,0.6-3.5,1.1-5.4,1.3C8.5,50.2,8,50.7,8,51.4v0c0,0.5,0.3,1,0.8,1.2   c3.9,1.7,8.3,2.7,12.9,2.7c21.1,0,32.7-17.9,32.7-33.5v0c0-0.9,0.4-1.8,1.1-2.4c1.2-1,2.3-2.1,3.3-3.4c0.4-0.5-0.1-1.2-0.7-1   c-1.2,0.4-2.4,0.7-3.7,0.9c-0.2,0-0.3-0.2-0.1-0.4c1.5-1.1,2.8-2.6,3.6-4.3c0.3-0.6-0.3-1.2-0.9-0.9c-1.1,0.6-2.3,1-3.5,1.4   c-1.2,0.4-2.6,0.1-3.6-0.7c-1.9-1.5-4.4-2.4-7-2.4c-5.3,0-9.8,3.7-11.1,8.8c-0.2,0.9,0.5,1.7,1.4,1.7c1.6-0.1,3.2-0.3,4.4-0.5   c1-0.2,2,0.3,2.4,1.2c0.5,1.2-0.2,2.4-1.3,2.7c-4.6,1.3-9.7,0.4-9.7,0.4l0,0C21.2,21.8,14.3,18,9.3,12.5C8.6,11.7,7.3,12,7,12.9   c-0.4,1.2-0.6,2.5-0.6,3.9C6.4,20.9,8.4,24.5,11.4,26.6z"
       id="path6"
       style="fill:#2ad4ff" /></g></svg>